<svg width="345" height="213" viewBox="0 0 345 213" fill="none" xmlns="http://www.w3.org/2000/svg">
<g filter="url(#filter0_d_4102_9023)">
<path d="M124.229 56.8149C124.363 56.8149 124.5 56.8192 124.635 56.8275V89.3296C124.506 89.333 124.37 89.3332 124.229 89.3332H7.71704V56.8149H124.229Z" fill="white" stroke="black"/>
<path d="M7.21722 58.5273H125.135" stroke="black" stroke-width="0.25" stroke-miterlimit="10" stroke-linecap="round" stroke-linejoin="round"/>
<path d="M7.21701 60.459H125.135" stroke="black" stroke-width="0.25" stroke-miterlimit="10" stroke-linecap="round" stroke-linejoin="round"/>
<path d="M7.21701 62.3901H125.135" stroke="black" stroke-width="0.25" stroke-miterlimit="10" stroke-linecap="round" stroke-linejoin="round"/>
<path d="M7.21701 64.3218H125.135" stroke="black" stroke-width="0.25" stroke-miterlimit="10" stroke-linecap="round" stroke-linejoin="round"/>
<path d="M7.21701 66.2529H125.135" stroke="black" stroke-width="0.25" stroke-miterlimit="10" stroke-linecap="round" stroke-linejoin="round"/>
<path d="M7.21701 68.1846H125.135" stroke="black" stroke-width="0.25" stroke-miterlimit="10" stroke-linecap="round" stroke-linejoin="round"/>
<path d="M7.21701 70.1162H125.135" stroke="black" stroke-width="0.25" stroke-miterlimit="10" stroke-linecap="round" stroke-linejoin="round"/>
<path d="M7.21701 72.0474H125.135" stroke="black" stroke-width="0.25" stroke-miterlimit="10" stroke-linecap="round" stroke-linejoin="round"/>
<path d="M7.21701 73.979H125.135" stroke="black" stroke-width="0.25" stroke-miterlimit="10" stroke-linecap="round" stroke-linejoin="round"/>
<path d="M7.21701 75.9102H125.135" stroke="black" stroke-width="0.25" stroke-miterlimit="10" stroke-linecap="round" stroke-linejoin="round"/>
<path d="M7.21701 77.8418H125.135" stroke="black" stroke-width="0.25" stroke-miterlimit="10" stroke-linecap="round" stroke-linejoin="round"/>
<path d="M7.21701 79.7729H125.135" stroke="black" stroke-width="0.25" stroke-miterlimit="10" stroke-linecap="round" stroke-linejoin="round"/>
<path d="M7.21701 81.7046H125.135" stroke="black" stroke-width="0.25" stroke-miterlimit="10" stroke-linecap="round" stroke-linejoin="round"/>
<path d="M7.21701 83.6362H125.135" stroke="black" stroke-width="0.25" stroke-miterlimit="10" stroke-linecap="round" stroke-linejoin="round"/>
<path d="M7.21701 85.5669H125.135" stroke="black" stroke-width="0.25" stroke-miterlimit="10" stroke-linecap="round" stroke-linejoin="round"/>
<path d="M7.21701 87.498H125.135" stroke="black" stroke-width="0.25" stroke-miterlimit="10" stroke-linecap="round" stroke-linejoin="round"/>
<path d="M7.21678 55.8341H1.5V51.9653H123.122H124.229C132.302 51.9653 138.838 58.5015 138.838 66.5747V79.5917C138.838 87.665 132.302 94.2011 124.229 94.2011H123.122H1.5V90.3323H7.21678H124.229C124.55 90.3323 124.887 90.311 125.17 90.2908L125.176 90.2903C130.666 89.8258 134.97 85.183 134.97 79.5917V66.5747C134.97 60.9862 130.672 56.3689 125.191 55.8775C124.878 55.8341 124.532 55.8341 124.246 55.8341L124.229 55.8341H7.21678Z" fill="#0E65E5" stroke="black"/>
<path d="M133.969 66.5748V79.5918C133.969 84.4757 130.347 88.5447 125.634 89.2306V56.9341C130.345 57.6031 133.969 61.6889 133.969 66.5748Z" fill="#0E65E5" stroke="black"/>
<path d="M295.968 66.5747V79.5917C295.968 87.6654 289.431 94.2011 281.379 94.2011H129.742C135.644 91.975 139.838 86.2763 139.838 79.5917V66.5747C139.838 59.8901 135.644 54.1915 129.742 51.9653H281.379C289.431 51.9653 295.968 58.501 295.968 66.5747Z" fill="white" stroke="black"/>
<path d="M157.888 51.9653C165.961 51.9653 172.498 58.5015 172.498 66.5747V79.5917C172.498 87.665 165.961 94.2011 157.888 94.2011H149.458C155.361 91.975 159.555 86.2763 159.555 79.5917V66.5747C159.555 59.8901 155.361 54.1915 149.458 51.9653H157.888Z" fill="#0E65E5" stroke="black"/>
<path d="M272.925 94.2018V51.5234H282.931V94.2018H272.925Z" fill="#0E65E5" stroke="black"/>
<path d="M124.229 94.7016C132.578 94.7016 139.338 87.9416 139.338 79.5922V66.5752C139.338 58.2258 132.578 51.4658 124.229 51.4658" stroke="black" stroke-width="0.75" stroke-miterlimit="10" stroke-linecap="round" stroke-linejoin="round"/>
<path d="M143.946 94.7016C152.295 94.7016 159.055 87.9416 159.055 79.5922V66.5752C159.055 58.2258 152.295 51.4658 143.946 51.4658" stroke="black" stroke-width="0.75" stroke-miterlimit="10" stroke-linecap="round" stroke-linejoin="round"/>
<path d="M157.888 94.7016C166.237 94.7016 172.997 87.9416 172.997 79.5922V66.5752C172.997 58.2258 166.237 51.4658 157.888 51.4658" stroke="black" stroke-width="0.75" stroke-miterlimit="10" stroke-linecap="round" stroke-linejoin="round"/>
<path d="M123.122 51.4658H1V56.3346H7.21678H124.229C124.531 56.3346 124.853 56.3547 125.134 56.3749C130.365 56.8175 134.47 61.2437 134.47 66.5752V79.5922C134.47 84.9237 130.365 89.3298 125.134 89.7926C124.853 89.8328 124.531 89.8328 124.229 89.8328H7.21678H1V94.7016H123.122" stroke="black" stroke-width="0.75" stroke-miterlimit="10" stroke-linecap="round" stroke-linejoin="round"/>
<path d="M123.122 94.7016H124.229H281.378C289.708 94.7016 296.468 87.9416 296.468 79.5922V66.5752C296.468 58.2258 289.708 51.4658 281.378 51.4658H124.229H123.122" stroke="black" stroke-width="0.75" stroke-miterlimit="10" stroke-linecap="round" stroke-linejoin="round"/>
<path d="M125.134 56.375V89.7725" stroke="black" stroke-width="0.75" stroke-miterlimit="10" stroke-linecap="round" stroke-linejoin="round"/>
<path d="M7.21686 56.3145V89.8327" stroke="black" stroke-width="0.75" stroke-miterlimit="10" stroke-linecap="round" stroke-linejoin="round"/>
<path d="M143.946 100.271C144.079 100.271 144.216 100.276 144.351 100.284V132.786C144.222 132.79 144.087 132.79 143.946 132.79H27.4334V100.271H143.946Z" fill="white" stroke="black"/>
<path d="M26.9334 101.984H144.851" stroke="black" stroke-width="0.25" stroke-miterlimit="10" stroke-linecap="round" stroke-linejoin="round"/>
<path d="M26.9332 103.915H144.851" stroke="black" stroke-width="0.25" stroke-miterlimit="10" stroke-linecap="round" stroke-linejoin="round"/>
<path d="M26.9332 105.847H144.851" stroke="black" stroke-width="0.25" stroke-miterlimit="10" stroke-linecap="round" stroke-linejoin="round"/>
<path d="M26.9332 107.779H144.851" stroke="black" stroke-width="0.25" stroke-miterlimit="10" stroke-linecap="round" stroke-linejoin="round"/>
<path d="M26.9332 109.709H144.851" stroke="black" stroke-width="0.25" stroke-miterlimit="10" stroke-linecap="round" stroke-linejoin="round"/>
<path d="M26.9332 111.641H144.851" stroke="black" stroke-width="0.25" stroke-miterlimit="10" stroke-linecap="round" stroke-linejoin="round"/>
<path d="M26.9332 113.572H144.851" stroke="black" stroke-width="0.25" stroke-miterlimit="10" stroke-linecap="round" stroke-linejoin="round"/>
<path d="M26.9332 115.504H144.851" stroke="black" stroke-width="0.25" stroke-miterlimit="10" stroke-linecap="round" stroke-linejoin="round"/>
<path d="M26.9332 117.435H144.851" stroke="black" stroke-width="0.25" stroke-miterlimit="10" stroke-linecap="round" stroke-linejoin="round"/>
<path d="M26.9332 119.367H144.851" stroke="black" stroke-width="0.25" stroke-miterlimit="10" stroke-linecap="round" stroke-linejoin="round"/>
<path d="M26.9332 121.299H144.851" stroke="black" stroke-width="0.25" stroke-miterlimit="10" stroke-linecap="round" stroke-linejoin="round"/>
<path d="M26.9332 123.23H144.851" stroke="black" stroke-width="0.25" stroke-miterlimit="10" stroke-linecap="round" stroke-linejoin="round"/>
<path d="M26.9332 125.161H144.851" stroke="black" stroke-width="0.25" stroke-miterlimit="10" stroke-linecap="round" stroke-linejoin="round"/>
<path d="M26.9332 127.092H144.851" stroke="black" stroke-width="0.25" stroke-miterlimit="10" stroke-linecap="round" stroke-linejoin="round"/>
<path d="M26.9332 129.024H144.851" stroke="black" stroke-width="0.25" stroke-miterlimit="10" stroke-linecap="round" stroke-linejoin="round"/>
<path d="M26.9332 130.956H144.851" stroke="black" stroke-width="0.25" stroke-miterlimit="10" stroke-linecap="round" stroke-linejoin="round"/>
<path d="M26.9331 99.2907H21.2163V95.4219H142.839H143.945C152.019 95.4219 158.555 101.958 158.555 110.031V123.048C158.555 131.122 152.019 137.658 143.945 137.658H142.839H21.2163V133.789H26.9331H143.945C144.266 133.789 144.603 133.768 144.886 133.747L144.893 133.747C150.383 133.282 154.686 128.64 154.686 123.048V110.031C154.686 104.443 150.388 99.8254 144.908 99.334C144.594 99.2906 144.249 99.2907 143.963 99.2907L143.945 99.2907H26.9331Z" fill="#0E65E5" stroke="black"/>
<path d="M153.686 110.032V123.049C153.686 127.933 150.063 132.002 145.351 132.688V100.391C150.062 101.059 153.686 105.127 153.686 110.032Z" fill="#0E65E5" stroke="black"/>
<path d="M301.095 95.4219L301.096 95.4219C309.147 95.4025 315.684 101.937 315.684 110.031V123.048C315.684 131.122 309.148 137.658 301.095 137.658H149.458C155.36 135.432 159.555 129.733 159.555 123.048V110.031C159.555 103.347 155.36 97.6481 149.458 95.4219L301.095 95.4219Z" fill="white" stroke="black"/>
<path d="M177.625 95.4023C185.698 95.4023 192.234 101.938 192.234 110.012V123.029C192.234 131.102 185.698 137.638 177.625 137.638H169.195C175.097 135.412 179.292 129.713 179.292 123.029V110.012C179.292 103.327 175.097 97.6285 169.195 95.4023H177.625Z" fill="#0E65E5" stroke="black"/>
<path d="M275.461 137.658V94.98H285.466V137.658H275.461Z" fill="#0E65E5" stroke="black"/>
<path d="M143.945 138.157C152.295 138.157 159.055 131.397 159.055 123.048V110.031C159.055 101.681 152.295 94.9214 143.945 94.9214" stroke="black" stroke-width="0.75" stroke-miterlimit="10" stroke-linecap="round" stroke-linejoin="round"/>
<path d="M163.662 138.157C172.011 138.157 178.771 131.397 178.771 123.048V110.031C178.771 101.681 172.011 94.9214 163.662 94.9214" stroke="black" stroke-width="0.75" stroke-miterlimit="10" stroke-linecap="round" stroke-linejoin="round"/>
<path d="M177.625 138.157C185.974 138.157 192.734 131.397 192.734 123.048V110.031C192.734 101.681 185.974 94.9214 177.625 94.9214" stroke="black" stroke-width="0.75" stroke-miterlimit="10" stroke-linecap="round" stroke-linejoin="round"/>
<path d="M142.839 94.9023H20.7163V99.7711H26.9331H143.945C144.247 99.7711 144.569 99.7913 144.851 99.8114C150.082 100.254 154.186 104.68 154.186 110.012V123.029C154.186 128.36 150.082 132.766 144.851 133.229C144.569 133.269 144.247 133.269 143.945 133.269H26.9331H20.7163V138.138H142.839" stroke="black" stroke-width="0.75" stroke-miterlimit="10" stroke-linecap="round" stroke-linejoin="round"/>
<path d="M142.839 138.157H143.945H301.095C309.424 138.157 316.184 131.397 316.184 123.048V110.031C316.184 101.681 309.424 94.9214 301.095 94.9214H143.945H142.839" stroke="black" stroke-width="0.75" stroke-miterlimit="10" stroke-linecap="round" stroke-linejoin="round"/>
<path d="M144.851 99.8311V133.229" stroke="black" stroke-width="0.75" stroke-miterlimit="10" stroke-linecap="round" stroke-linejoin="round"/>
<path d="M26.9333 99.7705V133.289" stroke="black" stroke-width="0.75" stroke-miterlimit="10" stroke-linecap="round" stroke-linejoin="round"/>
<path d="M269.751 5.08346C269.9 4.8442 270.08 4.63485 270.259 4.4255C270.319 4.36569 270.379 4.27599 270.439 4.21617C270.528 4.12645 270.588 4.03674 270.678 3.94702C271.306 3.34888 271.725 2.96006 272.831 2.33202C273.011 2.21239 273.519 1.97315 273.698 1.88343C274.297 1.64417 274.297 1.64416 275.044 1.40491C275.284 1.34509 276.121 1.10582 277.437 1.0161C278.334 0.956285 279.112 1.07592 279.53 1.16564C280.757 1.37499 282.252 2.03296 283.149 2.81054C283.388 3.01989 284.016 3.55823 284.495 4.276C284.884 4.87414 285.153 5.38256 285.452 6.27977L288.802 17.9136C289.16 19.1697 288.682 20.665 287.276 22.1006C284.495 24.9118 279.201 26.4072 275.433 25.4203C273.579 24.9417 272.442 23.9249 272.083 22.7286C271.067 19.2295 269.751 14.5939 268.734 11.0948C268.644 10.7359 268.584 10.4368 268.525 10.1378C268.495 9.83869 268.465 9.53964 268.465 9.18076C268.465 8.64243 268.554 7.89476 268.674 7.50597C268.704 7.41625 268.734 7.32652 268.764 7.17699C268.794 7.05736 268.824 6.96764 268.883 6.84801C268.883 6.8181 268.913 6.78817 268.913 6.72836C268.943 6.63863 268.973 6.57881 269.003 6.48909C269.063 6.36947 269.093 6.27974 269.153 6.16011C269.153 6.13021 269.182 6.07041 269.212 6.04051C269.272 5.95079 269.302 5.86107 269.362 5.77135C269.392 5.74145 269.392 5.68161 269.422 5.6517C269.452 5.62179 269.452 5.59189 269.482 5.56198C269.512 5.41245 269.631 5.2629 269.751 5.08346Z" fill="#9EE780" stroke="black" stroke-width="2" stroke-miterlimit="10" stroke-linecap="round" stroke-linejoin="round"/>
<path d="M331.868 181.804C331.868 181.804 326.664 180.129 323.225 184.645C325.588 188.054 327.711 191.075 328.399 191.853C330.074 193.856 331.838 193.019 331.898 190.656C331.928 189.31 331.928 185.781 331.868 181.804Z" fill="black"/>
<path d="M324.332 163.77L316.137 167.598L315.33 173.25C315.33 173.25 319.517 179.411 323.225 184.704C326.665 180.189 331.868 181.863 331.868 181.863H331.898C331.839 174.536 331.719 165.624 331.719 165.624L324.332 163.77Z" fill="#0E65E5"/>
<path d="M282.432 18.8701L324.332 163.77L331.689 165.564L289.729 20.5748L282.432 18.8701Z" fill="white"/>
<path d="M282.432 18.8701L274.237 22.6982V22.7282L316.137 167.568L324.332 163.77L282.432 18.8701Z" fill="white"/>
<path d="M274.237 22.7285L271.905 14.5938L271.067 20.2163L273.4 28.2912H273.43L274.237 22.7285Z" fill="#0E65E5"/>
<path d="M280.099 10.7651L282.432 18.8699L289.729 20.5746L287.456 12.5595L280.099 10.7651Z" fill="#0E65E5"/>
<path d="M271.905 14.5932L274.237 22.728V22.698L282.432 18.8699L280.099 10.7651L271.905 14.5932Z" fill="#0E65E5"/>
<path d="M273.4 28.2903L315.33 173.22L316.137 167.567L274.237 22.7275L273.43 28.2903H273.4Z" fill="#0E65E5"/>
<path d="M271.905 14.5938L271.067 20.2163L273.4 28.2912L315.33 173.221" stroke="black" stroke-width="2" stroke-miterlimit="10" stroke-linecap="round" stroke-linejoin="round"/>
<path d="M280.099 10.7651L271.905 14.5932L274.237 22.728L316.137 167.568" stroke="black" stroke-width="2" stroke-miterlimit="10" stroke-linecap="round" stroke-linejoin="round"/>
<path d="M331.689 165.564L289.729 20.5746L287.456 12.5595L280.099 10.7651L282.432 18.8699L324.332 163.77" stroke="black" stroke-width="2" stroke-miterlimit="10" stroke-linecap="round" stroke-linejoin="round"/>
<path d="M331.689 165.564C331.689 165.564 331.808 174.506 331.868 181.804C331.898 185.781 331.928 189.31 331.868 190.656C331.808 193.049 330.014 193.886 328.369 191.852C327.711 191.045 325.558 188.024 323.195 184.645C319.517 179.381 315.3 173.19 315.3 173.19L316.107 167.538L324.302 163.71L331.689 165.564Z" stroke="black" stroke-width="2" stroke-miterlimit="10" stroke-linecap="round" stroke-linejoin="round"/>
<path d="M331.868 181.804C331.868 181.804 326.664 180.129 323.225 184.645" stroke="black" stroke-width="2" stroke-miterlimit="10" stroke-linecap="round" stroke-linejoin="round"/>
<path d="M289.729 20.5748L282.432 18.8701L274.237 22.6982V22.7282L273.43 28.2909" stroke="black" stroke-width="2" stroke-miterlimit="10" stroke-linecap="round" stroke-linejoin="round"/>
</g>
<defs>
<filter id="filter0_d_4102_9023" x="0.625" y="0" width="344.278" height="212.004" filterUnits="userSpaceOnUse" color-interpolation-filters="sRGB">
<feFlood flood-opacity="0" result="BackgroundImageFix"/>
<feColorMatrix in="SourceAlpha" type="matrix" values="0 0 0 0 0 0 0 0 0 0 0 0 0 0 0 0 0 0 127 0" result="hardAlpha"/>
<feOffset dx="12" dy="18"/>
<feComposite in2="hardAlpha" operator="out"/>
<feColorMatrix type="matrix" values="0 0 0 0 0 0 0 0 0 0 0 0 0 0 0 0 0 0 0.2 0"/>
<feBlend mode="normal" in2="BackgroundImageFix" result="effect1_dropShadow_4102_9023"/>
<feBlend mode="normal" in="SourceGraphic" in2="effect1_dropShadow_4102_9023" result="shape"/>
</filter>
</defs>
</svg>
