<svg width="175" height="157" viewBox="0 0 175 157" fill="none" xmlns="http://www.w3.org/2000/svg">
<g filter="url(#filter0_d_4111_28320)">
<path d="M134.845 1H26.1545C12.2606 1 1 12.2416 1 26.1121V70.4215V85.9176V134.447L26.5702 111.03H134.845C148.739 111.03 160 99.7881 160 85.9176V26.1121C160 12.2416 148.739 1 134.845 1Z" fill="white" stroke="black" stroke-width="2" stroke-miterlimit="10"/>
<path d="M55.6398 58.0038C55.6398 64.0224 50.7544 68.9342 44.7257 68.9342C38.6969 68.9342 33.7769 64.057 33.7769 58.0038C33.7769 51.9852 38.6622 47.1081 44.7257 47.1081C50.7198 47.0735 55.6398 51.9852 55.6398 58.0038Z" fill="white" stroke="black" stroke-width="2" stroke-miterlimit="10"/>
<path d="M93.6489 58.0038C93.6489 64.0224 88.7636 68.9342 82.7348 68.9342C76.706 68.9342 71.786 64.057 71.786 58.0038C71.786 51.9852 76.6714 47.1081 82.7348 47.1081C88.7636 47.0735 93.6489 51.9852 93.6489 58.0038Z" fill="white" stroke="black" stroke-width="2" stroke-miterlimit="10"/>
<path d="M131.693 58.0038C131.693 64.0224 126.807 68.9342 120.778 68.9342C114.75 68.9342 109.83 64.057 109.83 58.0038C109.83 51.9852 114.715 47.1081 120.778 47.1081C126.807 47.0735 131.693 51.9852 131.693 58.0038Z" fill="white" stroke="black" stroke-width="2" stroke-miterlimit="10"/>
</g>
<defs>
<filter id="filter0_d_4111_28320" x="0" y="0" width="175" height="156.719" filterUnits="userSpaceOnUse" color-interpolation-filters="sRGB">
<feFlood flood-opacity="0" result="BackgroundImageFix"/>
<feColorMatrix in="SourceAlpha" type="matrix" values="0 0 0 0 0 0 0 0 0 0 0 0 0 0 0 0 0 0 127 0" result="hardAlpha"/>
<feOffset dx="14" dy="20"/>
<feComposite in2="hardAlpha" operator="out"/>
<feColorMatrix type="matrix" values="0 0 0 0 0 0 0 0 0 0 0 0 0 0 0 0 0 0 0.25 0"/>
<feBlend mode="normal" in2="BackgroundImageFix" result="effect1_dropShadow_4111_28320"/>
<feBlend mode="normal" in="SourceGraphic" in2="effect1_dropShadow_4111_28320" result="shape"/>
</filter>
</defs>
</svg>
