<?xml version="1.0" ?><svg xmlns="http://www.w3.org/2000/svg" viewBox="0 0 512 512"><g data-name="Layer 2"><path d="M130.9 366.9a9.9 9.9 0 0 0-2.9 7.1 10.33 10.33 0 0 0 2.9 7.1 9.73 9.73 0 0 0 7.1 2.9 10.33 10.33 0 0 0 7.1-2.9 9.73 9.73 0 0 0 2.9-7.1 10.52 10.52 0 0 0-2.9-7.1 9.9 9.9 0 0 0-7.1-2.9 10.33 10.33 0 0 0-7.1 2.9zM483.7 282a183.07 183.07 0 0 0 28.3-98C512 82.5 429.5 0 328 0a183.16 183.16 0 0 0-96 27 10 10 0 0 0 10.5 17.1A162.67 162.67 0 0 1 328 20c90.4 0 164 73.6 164 164a162.73 162.73 0 0 1-27.9 91.5 10.07 10.07 0 0 0 .3 11.6l11 40.9-44-11.8a10 10 0 0 0-8.4 1.5 164.32 164.32 0 0 1-151.8 20.2 138.68 138.68 0 0 0-97.1-97.1 164.31 164.31 0 0 1 14.5-143.2 10 10 0 0 0-17-10.6 184 184 0 0 0-19.9 149.6c-4.5-.4-9.1-.7-13.7-.7C61.9 236 0 297.9 0 374a136.88 136.88 0 0 0 22.9 76.1L12.2 490a10 10 0 0 0 12.3 12.3l40.9-11a137.71 137.71 0 0 0 146.5-.8 10 10 0 0 0-10.7-16.9 118.09 118.09 0 0 1-128.6-1.5 9.73 9.73 0 0 0-8.1-1.3L36 478.5l7.4-27.7a10 10 0 0 0-1.5-8.4 117.95 117.95 0 1 1 207-28 10 10 0 0 0 18.8 6.8 137.72 137.72 0 0 0 8.3-47.3 124.44 124.44 0 0 0-.7-13.7 183.93 183.93 0 0 0 155.3-23.6l56.2 15.1a10 10 0 0 0 12.3-12.3zm-246 162.2a10.52 10.52 0 0 0-7.1 2.9 9.73 9.73 0 0 0-2.9 7.1 10.33 10.33 0 0 0 2.9 7.1 9.73 9.73 0 0 0 7.1 2.9 10.52 10.52 0 0 0 7.1-2.9 9.73 9.73 0 0 0 2.9-7.1 9.9 9.9 0 0 0-10-10zM205.3 70.7a10.52 10.52 0 0 0 7.1-2.9 9.73 9.73 0 0 0 2.9-7.1 10.14 10.14 0 0 0-2.9-7.1 9.9 9.9 0 0 0-7.1-2.9 10.52 10.52 0 0 0-7.1 2.9 9.9 9.9 0 0 0-2.9 7.1 10.52 10.52 0 0 0 2.9 7.1 9.9 9.9 0 0 0 7.1 2.9zm-19.4 296.2a9.9 9.9 0 0 0-2.9 7.1 10.33 10.33 0 0 0 2.9 7.1 9.73 9.73 0 0 0 7.1 2.9 10.33 10.33 0 0 0 7.1-2.9 9.73 9.73 0 0 0 2.9-7.1 10.33 10.33 0 0 0-2.9-7.1 9.9 9.9 0 0 0-7.1-2.9 10.33 10.33 0 0 0-7.1 2.9zm210.8-201.1a9.8 9.8 0 0 0 5.2-1.5l1.3-.8a9.92 9.92 0 0 0 3.3-13.7 10.06 10.06 0 0 0-13.8-3.3l-1.3.8a10 10 0 0 0 5.3 18.5zm-68.1 107.4a58 58 0 0 0 57.9-57.9 7 7 0 0 0-7-7H277.7a7 7 0 0 0-7 7 58 58 0 0 0 57.9 57.9zm-43.5-50.9h87.1l-1 3.7a43.93 43.93 0 0 1-85.2 0zm-25.8-56.5a9.8 9.8 0 0 0 5.2-1.5l1.3-.8a9.92 9.92 0 0 0 3.3-13.7 10.06 10.06 0 0 0-13.8-3.3l-1.3.8a10 10 0 0 0 5.3 18.5zM75.9 366.9A9.9 9.9 0 0 0 73 374a10.33 10.33 0 0 0 2.9 7.1A9.73 9.73 0 0 0 83 384a10.33 10.33 0 0 0 7.1-2.9A9.73 9.73 0 0 0 93 374a10.33 10.33 0 0 0-2.9-7.1A9.9 9.9 0 0 0 83 364a10.33 10.33 0 0 0-7.1 2.9z" fill="#4285f4" data-name="Capa 1"/></g></svg>