<svg width="129" height="171" viewBox="0 0 129 171" fill="none" xmlns="http://www.w3.org/2000/svg">
    <path d="M53.3782 143.655C53.3782 143.655 47.7971 144.954 47.7971 148.668C47.8646 154.264 49.8191 159.694 53.3782 164.174L49.995 165.291L46.0731 166.569L65.4671 168.477L66.8893 163.708C69.8199 159.973 78.2455 155.366 101.971 154.879C102.122 155.163 103.587 157.436 111.086 158.796C110.573 158.439 110.11 158.023 109.707 157.558C106.841 153.742 104.535 140.834 104.535 140.834H98.8031C99.3365 140.3 99.7172 139.648 99.9095 138.938C100.102 138.228 100.099 137.484 99.9021 136.775C99.4065 130.686 89.8603 119.848 89.8603 119.848C89.0917 121.006 88.0252 121.963 86.7596 122.63C85.494 123.297 84.0702 123.652 82.62 123.663L93.3944 116.276C93.3944 116.276 92.0799 112.683 83.9344 111.486C79.4445 110.614 74.8086 110.655 70.3371 111.607C69.2009 111.834 68.0786 112.118 66.9755 112.46C68.268 112.689 69.5423 113.001 70.7896 113.394L70.9405 114.003C65.1128 112.187 58.8705 111.9 52.8825 113.17C40.2118 115.383 42.1081 131.964 42.1081 131.964C41.1645 132.204 40.2691 132.588 39.4577 133.101C35.9237 135.415 53.3782 143.655 53.3782 143.655Z" fill="white"/>
    <path d="M1.61649 64.7845C1.61649 93.4831 26.7424 112.358 58.6131 112.358C83.0926 112.358 104.404 101.236 112.981 83.0711C119.445 74.9527 127.612 59.203 118.821 37.5673C105.891 5.92575 75.5936 1.52148 75.5936 1.52148C71.8608 4.23069 68.559 7.42932 65.7889 11.02C63.4106 10.7171 61.0131 10.568 58.6131 10.5736C52.5049 10.5677 46.4383 11.5212 40.663 13.3948L40.8569 13.2527L29.3499 8.34106C29.3499 8.34106 17.6704 14.856 11.1627 35.1318C4.98307 43.9297 1.66523 54.2357 1.61649 64.7845Z" fill="white"/>
    <path d="M48.5073 131.62C48.5073 131.62 58.5922 136.613 55.4245 142.701L59.0662 140.794L66.9531 142.093L54.8858 119.767C54.0531 119.631 53.1986 119.677 52.3875 119.9C51.5764 120.123 50.8303 120.518 50.2063 121.055C49.5823 121.592 49.0971 122.256 48.7877 122.997C48.4783 123.737 48.3528 124.535 48.4211 125.328L48.5073 131.62Z" fill="#96D962"/>
    <path d="M99.945 140.794L102.1 154.879L109.836 157.558C106.97 153.743 104.664 140.835 104.664 140.835L99.945 140.794Z" fill="#96D962"/>
    <path d="M49.9942 165.291L65.5309 168.478L66.9531 163.708H66.9316L53.3774 164.175L49.9942 165.291Z" fill="#96D962"/>
    <path d="M70.4018 111.526L70.8543 113.312L71.0052 113.921C74.9013 115.957 78.453 118.529 81.5426 121.553C81.9613 122.038 82.3026 122.578 82.5554 123.156C82.5554 123.318 82.5553 123.44 82.6631 123.501L93.4375 116.113C93.4375 116.113 92.123 112.521 83.9775 111.323C79.4614 110.764 74.8843 110.805 70.3802 111.445L70.4018 111.526Z" fill="#96D962"/>
    <path d="M66.522 138.561L66.759 138.804C66.8668 138.926 67.0176 139.048 67.1685 139.231C69.602 141.676 72.2631 143.91 75.12 145.908L76.4129 146.72C77.3561 147.302 78.3596 147.791 79.4082 148.181L80.421 148.486H80.7442C81.1118 148.565 81.4876 148.606 81.8648 148.607H82.8129L84.1489 148.425C88.8897 147.511 95.9146 144.365 98.7806 140.793C99.314 140.26 99.6947 139.608 99.887 138.898C100.079 138.187 100.077 137.443 99.8796 136.734C98.1936 132.552 96.0258 128.557 93.4149 124.82L78.6325 133.061C78.6325 133.061 72.8358 139.657 66.522 138.561Z" fill="#96D962"/>
    <path d="M11.1416 35.2138L40.6635 13.3955L40.8574 13.2534L29.3504 8.3418C29.3504 8.3418 17.6709 14.8567 11.1632 35.1325L11.1416 35.2138Z" fill="#96D962"/>
    <path d="M11.1409 36.7365C11.502 36.7435 11.8537 36.6282 12.1322 36.4117L41.848 14.4513C42.0715 14.293 42.2468 14.0823 42.3565 13.8401C42.4662 13.5979 42.5064 13.3326 42.4729 13.0712C42.4375 12.8117 42.3316 12.5652 42.1655 12.3554C41.9994 12.1457 41.7788 11.9798 41.5248 11.8738L30.0177 6.96204C29.7891 6.84656 29.5337 6.78613 29.2743 6.78613C29.0149 6.78613 28.7595 6.84656 28.5308 6.96204C28.0352 7.22589 16.2265 14.0049 9.61097 34.6054C9.59158 34.7469 9.59158 34.8901 9.61097 35.0316C9.61238 35.3151 9.69787 35.5927 9.85778 35.8329C10.0177 36.0732 10.2456 36.2666 10.516 36.3914C10.6898 36.5545 10.9049 36.6734 11.1409 36.7365ZM37.7752 13.5989L14.3732 30.8709C19.7389 17.577 27.3025 11.6302 29.4574 10.0877L37.7752 13.5989Z" fill="#282828"/>
    <path d="M1.61646 64.7845C1.61646 93.4831 26.7424 112.358 58.6131 112.358C83.0926 112.358 104.404 101.236 112.981 83.0711C115.698 77.324 117.08 71.0959 117.032 64.8047C117.032 38.298 94.3841 14.511 65.7888 11.0404C63.4105 10.7374 61.0131 10.5883 58.6131 10.5939C52.5048 10.5881 46.4383 11.5416 40.663 13.4151C29.3319 17.1566 19.5019 24.0991 12.5141 33.2959C5.52628 42.4927 1.7207 53.4959 1.61646 64.8047V64.7845Z" fill="white"/>
    <path d="M58.6117 113.881C83.8884 113.881 105.804 102.028 114.466 83.6805C117.28 77.7364 118.705 71.2927 118.647 64.7849C118.647 37.3649 95.5248 13.0907 66.0029 9.51856C63.5532 9.20543 61.0838 9.04951 58.6117 9.05179C52.3273 9.04482 46.0858 10.0257 40.1443 11.9541C27.7043 16.0499 17.047 23.8976 9.82516 34.2798C3.4668 43.3078 0.0510635 53.8904 -0.00115967 64.7239C-0.00115967 93.2399 24.6507 113.881 58.6117 113.881ZM58.6117 12.0962C60.9393 12.0913 63.2646 12.2338 65.5719 12.5225C93.5854 15.9322 115.414 38.9074 115.414 64.7849C115.466 70.8654 114.137 76.8859 111.514 82.4424C103.369 99.694 82.5955 110.857 58.6117 110.857C26.5255 110.857 3.23116 91.4944 3.23116 64.8051C3.27113 54.55 6.5 44.5306 12.5188 35.9847C19.34 26.1606 29.415 18.7331 41.1787 14.8564C46.7853 13.0261 52.6778 12.0931 58.6117 12.0962Z" fill="#282828"/>
    <path d="M82.6418 125.105C82.9813 125.103 83.3122 125.004 83.59 124.82L94.3644 117.433C94.5522 117.301 94.7086 117.133 94.8237 116.941C94.9387 116.749 95.0098 116.536 95.0324 116.316C95.0503 116.096 95.0171 115.875 94.9353 115.668C94.8534 115.462 94.7248 115.274 94.5583 115.119C91.7251 112.525 88.1807 110.726 84.3226 109.923C79.6361 108.998 74.7931 109.032 70.122 110.025H69.9927C67.8378 110.471 66.5018 110.897 66.4371 110.918C66.0962 111.025 65.8031 111.237 65.6043 111.519C65.4055 111.802 65.3122 112.138 65.3395 112.476C65.3667 112.814 65.5127 113.133 65.7545 113.384C65.9962 113.635 66.3198 113.803 66.6742 113.861C67.9002 114.075 69.1096 114.367 70.2944 114.733C72.6876 115.369 74.8984 116.504 76.7634 118.053C78.6283 119.603 80.0998 121.527 81.0688 123.684C81.0688 123.684 81.0688 123.968 81.0688 124.009C81.0957 124.087 81.1319 124.161 81.1765 124.232C81.3307 124.527 81.5795 124.768 81.8876 124.922C82.122 125.034 82.3793 125.096 82.6418 125.105ZM90.8089 116.073L83.3314 121.208C81.1556 117.302 77.5834 114.246 73.2466 112.582C76.6718 112.103 80.1603 112.206 83.5469 112.886C86.1851 113.438 88.6635 114.525 90.8089 116.073Z" fill="#282828"/>
    <path d="M82.383 150.231C82.8569 150.235 83.3287 150.173 83.7837 150.049H84.0854L84.6241 149.907C87.9642 148.953 99.0403 145.36 101.238 138.886C101.469 138.149 101.549 137.378 101.475 136.613C100.937 130.199 91.4766 119.28 91.0672 118.813C90.9013 118.624 90.6892 118.475 90.4491 118.38C90.2089 118.284 89.9479 118.245 89.6881 118.265C89.426 118.288 89.1736 118.37 88.9523 118.504C88.7309 118.638 88.5472 118.821 88.4167 119.036C87.8791 119.829 87.1688 120.505 86.333 121.019C85.4971 121.533 84.5547 121.874 83.5682 122.02C83.3743 121.675 83.1157 121.249 82.814 120.802L82.6632 120.619C79.9256 116.856 75.9854 114.012 71.4147 112.501C65.3189 110.592 58.7876 110.277 52.5164 111.588C41.311 113.617 39.7379 125.795 40.4706 132.046C40.5141 132.447 40.7246 132.815 41.0558 133.07C41.387 133.325 41.8119 133.446 42.2376 133.406C42.6626 133.355 43.0502 133.151 43.3194 132.837C43.5885 132.523 43.7182 132.123 43.6814 131.721C43.6814 131.092 42.0652 116.52 53.0982 114.591C58.8124 113.385 64.7657 113.644 70.3373 115.342C74.3037 116.642 77.7194 119.112 80.0773 122.385L80.1851 122.527C80.5383 123.02 80.8413 123.543 81.0901 124.09C81.2102 124.362 81.4138 124.595 81.6748 124.757C81.9358 124.92 82.2425 125.006 82.5555 125.003C83.8988 125.022 85.2322 124.785 86.4762 124.307C87.7202 123.83 88.8492 123.121 89.7958 122.223C92.8127 125.937 97.8982 132.899 98.2214 136.816C98.2926 137.185 98.2926 137.563 98.2214 137.932C96.8639 141.991 89.6019 145.279 83.8484 146.943H83.6113L83.2019 147.065H82.8787C82.3093 147.158 81.7243 147.116 81.1763 146.943L80.7453 146.842L80.1635 146.639C79.1509 146.25 78.1712 145.788 77.2329 145.259L76.0261 144.508C73.2217 142.648 70.6547 140.489 68.3763 138.074L67.9884 137.668L67.6652 137.343C66.2215 135.771 64.8622 134.132 63.5925 132.432C60.572 128.327 58.158 123.855 56.4167 119.138C56.2793 118.756 55.9865 118.441 55.6027 118.262C55.2188 118.083 54.7754 118.055 54.3696 118.184C54.1578 118.249 53.9625 118.355 53.7955 118.494C53.6286 118.633 53.4936 118.803 53.3988 118.993C53.304 119.183 53.2514 119.389 53.2441 119.599C53.2369 119.809 53.2752 120.018 53.3568 120.214C55.194 125.209 57.7537 129.942 60.9635 134.279C62.2947 136.105 63.7336 137.86 65.2733 139.535L65.575 139.84L65.9844 140.266C68.4232 142.843 71.171 145.145 74.1729 147.126L75.4659 147.938C76.5843 148.58 77.7595 149.13 78.9784 149.582L79.9049 149.907H80.379C81.0271 150.105 81.702 150.214 82.383 150.231Z" fill="#282828"/>
    <path d="M82.6399 142.316H82.7908C83.0024 142.301 83.2087 142.246 83.3975 142.155C83.5863 142.063 83.7539 141.937 83.8904 141.784C84.0268 141.631 84.1295 141.454 84.1923 141.263C84.2551 141.072 84.2768 140.871 84.2561 140.672C83.5881 133.122 68.353 120.112 66.6076 118.651C66.2875 118.382 65.8671 118.243 65.4387 118.266C65.0104 118.289 64.6092 118.471 64.3234 118.773C64.0377 119.074 63.8908 119.47 63.915 119.873C63.9393 120.277 64.1326 120.655 64.4527 120.924C68.9133 124.679 80.5712 135.557 81.0453 140.936C81.0826 141.311 81.2663 141.66 81.5609 141.915C81.8554 142.17 82.2399 142.313 82.6399 142.316Z" fill="#282828"/>
    <path d="M53.3769 145.178C53.6762 145.181 53.9703 145.104 54.2257 144.957C54.481 144.81 54.6871 144.598 54.8206 144.345C55.0089 143.987 55.04 143.573 54.9069 143.193C54.7738 142.814 54.4874 142.498 54.1095 142.316C47.6449 139.312 41.8051 135.638 40.7492 134.076C41.322 133.775 41.9292 133.537 42.5593 133.365C43.2278 133.186 43.9136 133.071 44.6065 133.02C45.8069 132.924 47.0152 132.965 48.2052 133.142C48.4396 133.178 48.6793 133.167 48.9092 133.111C49.1391 133.055 49.3542 132.955 49.5412 132.817C49.721 132.671 49.8659 132.49 49.9661 132.287C50.0664 132.085 50.1199 131.864 50.123 131.64V125.348C50.123 124.945 49.9527 124.557 49.6496 124.272C49.3465 123.987 48.9355 123.826 48.5068 123.826C48.0782 123.826 47.6671 123.987 47.364 124.272C47.0609 124.557 46.8907 124.945 46.8907 125.348V129.935C46.0439 129.885 45.1947 129.885 44.3479 129.935C43.4436 130.011 42.5489 130.167 41.6759 130.402C40.5707 130.686 39.5225 131.138 38.5729 131.742C38.1747 131.983 37.854 132.323 37.6452 132.723C37.4363 133.124 37.3473 133.57 37.3876 134.015C37.6462 137.445 47.063 142.377 52.6657 144.995C52.8808 145.115 53.1266 145.179 53.3769 145.178Z" fill="#282828"/>
    <path d="M65.5287 169.999C65.7637 169.999 65.9956 169.95 66.208 169.855C66.4203 169.76 66.6078 169.622 66.757 169.451C66.9322 169.267 67.054 169.043 67.1106 168.801C67.1672 168.56 67.1568 168.308 67.0802 168.071C66.955 166.884 67.3261 165.697 68.1146 164.763L68.2439 164.621C70.3988 161.8 77.7038 157.01 101.257 156.503C102.313 157.599 104.877 159.303 110.867 160.399C111.239 160.472 111.625 160.419 111.959 160.25C112.293 160.081 112.553 159.807 112.694 159.476C112.835 159.145 112.848 158.777 112.731 158.438C112.614 158.098 112.374 157.808 112.053 157.619C111.698 157.353 111.373 157.054 111.083 156.726L110.889 156.523C109.338 154.777 106.579 150.272 106.191 140.834C106.189 140.637 106.145 140.442 106.062 140.261C105.979 140.08 105.859 139.916 105.709 139.778C105.559 139.64 105.382 139.532 105.187 139.459C104.993 139.386 104.785 139.35 104.575 139.352H98.4123C97.9836 139.352 97.5725 139.513 97.2694 139.798C96.9664 140.084 96.7961 140.471 96.7961 140.875C96.7961 141.278 96.9664 141.666 97.2694 141.951C97.5725 142.236 97.9836 142.397 98.4123 142.397H102.959C103.077 147.197 104.352 151.91 106.687 156.178C105.417 155.852 104.272 155.19 103.39 154.27C103.324 154.143 103.236 154.026 103.131 153.925C102.979 153.767 102.793 153.641 102.585 153.557C102.376 153.473 102.151 153.432 101.925 153.438C82.5308 153.844 70.4203 156.949 65.7012 162.713L65.5503 162.875C64.5769 164.05 63.9656 165.455 63.7833 166.935L53.3752 165.9L53.8277 165.758C54.0719 165.673 54.2911 165.535 54.4674 165.355C54.6437 165.175 54.7718 164.958 54.8413 164.722C54.9108 164.486 54.9196 164.238 54.867 163.998C54.8144 163.758 54.702 163.533 54.5389 163.342C51.2284 159.132 49.4043 154.049 49.324 148.81C49.324 146.375 53.6338 145.279 53.6338 145.279C54.5022 145.012 55.3284 144.637 56.0903 144.163H56.2412C57.1655 143.701 57.983 143.07 58.6461 142.308C59.3092 141.545 59.8046 140.666 60.1034 139.722C60.4022 138.777 60.4984 137.786 60.3866 136.807C60.2748 135.827 59.9571 134.878 59.452 134.015C59.3618 133.833 59.2344 133.67 59.0772 133.535C58.9199 133.4 58.7359 133.296 58.5357 133.228C58.3355 133.16 58.123 133.13 57.9104 133.139C57.6979 133.149 57.4895 133.198 57.2971 133.284C56.9157 133.463 56.6223 133.774 56.4778 134.152C56.3334 134.53 56.349 134.946 56.5213 135.314C56.8395 135.826 57.0431 136.395 57.1197 136.985C57.1963 137.575 57.1442 138.173 56.9666 138.743C56.7891 139.313 56.4898 139.843 56.0872 140.3C55.6845 140.757 55.187 141.133 54.625 141.402L54.388 141.524C53.8758 141.846 53.3264 142.111 52.7503 142.316C52.5779 142.316 46.0486 143.919 46.0486 148.77C46.0979 153.996 47.7111 159.103 50.7031 163.505L45.4237 165.23C45.0702 165.338 44.767 165.557 44.5652 165.851C44.3634 166.145 44.2753 166.496 44.3158 166.844C44.3563 167.192 44.5229 167.516 44.7875 167.762C45.0521 168.007 45.3985 168.16 45.7685 168.193L65.1624 170.101L65.5287 169.999Z" fill="#282828"/>
    <path d="M44.5427 133.02H44.8013C45.0119 132.99 45.2141 132.922 45.396 132.817C45.5779 132.713 45.7357 132.575 45.8602 132.413C45.9848 132.25 46.0735 132.066 46.121 131.87C46.1686 131.675 46.1741 131.472 46.1373 131.274C46.1373 130.787 44.1763 119.097 53.6794 114.469C54.0456 114.276 54.3204 113.959 54.4484 113.582C54.5764 113.206 54.548 112.797 54.369 112.44C54.1675 112.091 53.8311 111.829 53.4297 111.708C53.0284 111.587 52.593 111.617 52.2141 111.79C40.5993 117.433 42.8619 131.234 42.9696 131.802C43.0437 132.144 43.2405 132.452 43.5269 132.674C43.8133 132.895 44.172 133.018 44.5427 133.02Z" fill="#282828"/>
    <path d="M59.3025 55.2656C73.2015 92.3263 106.71 89.5051 106.71 89.5051C109.075 87.5945 111.2 85.4358 113.045 83.0711C119.51 74.9527 127.677 59.203 118.885 37.5674C105.956 5.92575 75.6581 1.52148 75.6581 1.52148C71.9253 4.23069 68.6235 7.42932 65.8534 11.02C58.7423 19.9706 51.6958 35.0304 59.3025 55.2656Z" fill="#96D962"/>
    <path d="M105.289 91.0684C106.215 91.0684 106.754 91.0684 106.797 91.0684C107.109 91.0299 107.405 90.9183 107.659 90.7437C110.126 88.7467 112.345 86.493 114.274 84.0257C120.502 76.2117 129.553 59.6704 120.33 37.0605C116.81 27.8701 110.891 19.6619 103.119 13.1923C95.3459 6.7227 85.9693 2.19983 75.8528 0.0405C75.4365 -0.0183133 75.012 0.076186 74.6677 0.304359C70.7863 3.09348 67.3595 6.40297 64.4966 10.1276C57.1269 19.5044 49.9727 35.0309 57.7734 55.7938C70.2502 88.9982 98.4145 91.0684 105.289 91.0684ZM106.021 88.024C101.711 88.2066 73.3747 88.227 60.7687 54.7588C53.4421 35.2542 60.1222 20.7019 67.0178 11.934C69.581 8.65782 72.5791 5.70447 75.9391 3.14586C85.3514 5.31642 94.0481 9.64478 101.255 15.7459C108.462 21.8471 113.956 29.5317 117.248 38.116C125.48 58.412 118.735 73.2282 111.624 82.1585C109.964 84.2815 108.088 86.2459 106.021 88.024Z" fill="#282828"/>
    <path d="M83.3289 150.232C83.7575 150.256 84.1788 150.119 84.5001 149.851C84.8213 149.582 85.0163 149.205 85.042 148.801C85.0677 148.397 84.9221 148 84.6372 147.698C84.3523 147.395 83.9514 147.212 83.5228 147.187C74.9033 146.254 61.1551 144.204 58.1383 142.398C57.7796 142.21 57.3591 142.156 56.9601 142.246C56.561 142.336 56.2124 142.564 55.9834 142.885C55.7788 143.221 55.7184 143.619 55.8145 143.996C55.9106 144.373 56.156 144.702 56.5005 144.914C61.0904 147.654 80.9801 149.907 83.2211 150.151L83.3289 150.232Z" fill="#282828"/>
    <path d="M70.5735 144.143C70.9504 144.139 71.3139 144.011 71.6011 143.781C71.8884 143.552 72.0813 143.234 72.1466 142.885C72.187 142.689 72.1854 142.487 72.142 142.292C72.0986 142.096 72.0143 141.911 71.8939 141.746C71.7735 141.582 71.6195 141.442 71.4409 141.334C71.2623 141.226 71.0626 141.153 70.8537 141.119L59.3682 139.211C58.9652 139.174 58.5622 139.281 58.2389 139.511C57.9157 139.741 57.6958 140.076 57.6226 140.451C57.5495 140.826 57.6285 141.214 57.844 141.537C58.0595 141.859 58.3957 142.094 58.7863 142.195L70.2935 144.123L70.5735 144.143Z" fill="#282828"/>
    <path d="M84.17 136.025C84.4405 136.024 84.7068 135.962 84.9457 135.842L95.0305 130.626C95.3934 130.43 95.6613 130.108 95.7778 129.73C95.8944 129.351 95.8505 128.945 95.6555 128.596C95.4547 128.247 95.1153 127.987 94.7114 127.873C94.3076 127.759 93.8723 127.8 93.5006 127.987L83.4157 133.224C83.045 133.413 82.7689 133.733 82.6477 134.113C82.5266 134.493 82.5702 134.903 82.7692 135.253C82.9115 135.485 83.1155 135.679 83.3611 135.814C83.6067 135.949 83.8855 136.022 84.17 136.025Z" fill="#282828"/>
    <path d="M113.713 126.85H126.427C126.855 126.85 127.267 126.69 127.57 126.404C127.873 126.119 128.043 125.732 128.043 125.328C128.043 124.924 127.873 124.537 127.57 124.251C127.267 123.966 126.855 123.806 126.427 123.806H113.756C113.327 123.806 112.916 123.966 112.613 124.251C112.31 124.537 112.14 124.924 112.14 125.328C112.14 125.732 112.31 126.119 112.613 126.404C112.916 126.69 113.327 126.85 113.756 126.85H113.713Z" fill="#282828"/>
    <path d="M99.9432 133.407H117.29C117.719 133.407 118.13 133.246 118.433 132.961C118.736 132.675 118.906 132.288 118.906 131.885C118.906 131.481 118.736 131.094 118.433 130.808C118.13 130.523 117.719 130.362 117.29 130.362H99.9432C99.5146 130.362 99.1035 130.523 98.8004 130.808C98.4974 131.094 98.3271 131.481 98.3271 131.885C98.3271 132.288 98.4974 132.675 98.8004 132.961C99.1035 133.246 99.5146 133.407 99.9432 133.407Z" fill="#282828"/>
    <path d="M45.4668 69.3512C45.6025 69.3701 45.7405 69.3701 45.8762 69.3512C46.0815 69.2994 46.2739 69.21 46.4425 69.0881C46.611 68.9662 46.7523 68.8141 46.8584 68.6407C46.9645 68.4672 47.0333 68.2758 47.0607 68.0773C47.0881 67.8788 47.0737 67.6771 47.0183 67.4839C46.3794 63.9031 46.3794 60.247 47.0183 56.6662C47.0867 56.2679 46.9844 55.8602 46.7339 55.5329C46.4834 55.2057 46.1051 54.9854 45.6823 54.9206C45.4741 54.8858 45.2607 54.8903 45.0544 54.9339C44.8481 54.9774 44.653 55.0591 44.4805 55.1743C44.3081 55.2895 44.1617 55.4359 44.0499 55.6049C43.938 55.7739 43.863 55.9622 43.8291 56.1588C43.0685 60.1864 43.0685 64.3088 43.8291 68.3364C43.9463 68.6512 44.1701 68.921 44.4659 69.1043C44.7618 69.2877 45.1135 69.3745 45.4668 69.3512Z" fill="#282828"/>
    <path d="M27.539 69.3512C27.6748 69.3701 27.8127 69.3701 27.9485 69.3512C28.1537 69.2994 28.3462 69.21 28.5147 69.0881C28.6833 68.9662 28.8247 68.8141 28.9308 68.6407C29.0368 68.4672 29.1055 68.2758 29.133 68.0773C29.1604 67.8788 29.146 67.6771 29.0906 67.4839C28.4516 63.9031 28.4516 60.247 29.0906 56.6662C29.1589 56.2679 29.0567 55.8602 28.8061 55.5329C28.5556 55.2057 28.1774 54.9854 27.7545 54.9206C27.5464 54.8858 27.333 54.8903 27.1266 54.9339C26.9203 54.9774 26.7253 55.0591 26.5528 55.1743C26.3804 55.2895 26.234 55.4359 26.1221 55.6049C26.0103 55.7739 25.9352 55.9622 25.9014 56.1588C25.1407 60.1864 25.1407 64.3088 25.9014 68.3364C26.0186 68.6512 26.2423 68.921 26.5382 69.1043C26.8341 69.2877 27.1857 69.3745 27.539 69.3512Z" fill="#282828"/>
    <path d="M42.8173 101.4C44.1376 101.409 45.4244 101.009 46.4806 100.263C52.9452 95.6965 51.5662 78.0998 51.3722 76.1107C51.3238 75.7216 51.122 75.3638 50.8067 75.1082C50.4914 74.8526 50.0856 74.7178 49.6698 74.7306C41.4166 75.1974 27.1513 75.2583 24.0052 73.3708C23.739 73.198 23.4234 73.1055 23.1001 73.1055C22.7769 73.1055 22.4613 73.198 22.1951 73.3708C21.9366 73.5471 21.7394 73.7915 21.6282 74.0732C21.517 74.3549 21.4968 74.6613 21.5702 74.9538C21.7641 75.8063 26.8497 95.8385 39.6497 100.73C40.651 101.14 41.7259 101.367 42.8173 101.4ZM48.2692 77.8563C48.7433 84.8178 48.1399 95.3311 44.5628 97.8276C44.0195 98.1738 43.3837 98.3688 42.7282 98.3903C42.0726 98.4119 41.4239 98.259 40.8564 97.9493C32.2369 94.6411 27.3452 82.5446 25.5351 77.0444C31.9998 78.4245 43.787 78.0593 48.2692 77.8563Z" fill="#282828"/>
    <path d="M19.5242 41.9513C19.9376 41.9487 20.3359 41.8043 20.6447 41.5454C24.1141 38.3995 26.5922 39.1504 26.6999 39.1707C27.0926 39.2845 27.5166 39.253 27.8855 39.0828C28.2545 38.9126 28.5409 38.6166 28.6863 38.2547C28.8318 37.8928 28.8255 37.4922 28.6686 37.1346C28.5118 36.7769 28.2162 36.489 27.842 36.3292C27.6696 36.3292 23.5322 34.7867 18.4036 39.333C18.1009 39.6184 17.931 40.0054 17.931 40.4088C17.931 40.8122 18.1009 41.199 18.4036 41.4844C18.5469 41.6298 18.7202 41.7462 18.9129 41.8264C19.1055 41.9067 19.3135 41.9492 19.5242 41.9513Z" fill="#282828"/>
    <path d="M51.6957 41.9512C51.9136 41.9547 52.1299 41.9149 52.3303 41.8345C52.5308 41.7541 52.7111 41.6347 52.8593 41.4843C53.162 41.1989 53.332 40.812 53.332 40.4086C53.332 40.0053 53.162 39.6183 52.8593 39.3329C47.7954 34.7866 43.5934 36.2682 43.421 36.3291C43.0209 36.4744 42.6986 36.7635 42.5248 37.1327C42.351 37.5019 42.34 37.921 42.4944 38.2978C42.6487 38.6746 42.9556 38.9782 43.3476 39.1419C43.7396 39.3055 44.1845 39.316 44.5846 39.1706C44.7354 39.1706 47.192 38.4399 50.6183 41.5452C50.9159 41.7952 51.2972 41.9389 51.6957 41.9512Z" fill="#282828"/>
    <path d="M12.8935 71.8283C8.7181 71.106 5.65799 68.8552 6.05858 66.801C6.45917 64.7468 10.1688 63.6671 14.3441 64.3894C18.5195 65.1117 21.5796 67.3625 21.179 69.4167C20.7784 71.4709 17.0689 72.5506 12.8935 71.8283Z" fill="#F9D373"/>
    <path d="M50.0231 71.4322C49.7781 69.3488 52.6671 67.3378 56.476 66.9405C60.2848 66.5431 63.5712 67.9099 63.8162 69.9933C64.0612 72.0767 61.172 74.0877 57.3631 74.4851C53.5543 74.8824 50.2681 73.5156 50.0231 71.4322Z" fill="#F9D373"/>
</svg>
